<?xml version="1.0" standalone="no"?>
<!DOCTYPE svg PUBLIC "-//W3C//DTD SVG 20010904//EN"
 "http://www.w3.org/TR/2001/REC-SVG-20010904/DTD/svg10.dtd">
<svg version="1.0" xmlns="http://www.w3.org/2000/svg"
 width="477.000000pt" height="477.000000pt" viewBox="0 0 477.000000 477.000000"
 preserveAspectRatio="xMidYMid meet">
<metadata>
Created by potrace 1.11, written by Peter Selinger 2001-2013
</metadata>
<g transform="translate(0.000000,477.000000) scale(0.100000,-0.100000)"
fill="#000000" stroke="none">
<path d="M1413 4027 l-952 -552 -1 -1110 0 -1110 453 -260 c248 -142 681 -391
961 -552 280 -161 512 -291 515 -289 3 1 437 252 964 556 l957 554 -2 1104 -3
1104 -950 554 c-522 304 -959 553 -970 553 -11 1 -448 -248 -972 -552z m1897
-78 l910 -523 0 -1018 c0 -897 -2 -1018 -15 -1018 -13 0 -15 122 -17 1011 l-3
1011 -871 502 c-479 276 -883 510 -897 519 -15 9 -33 17 -42 17 -9 0 -336
-188 -728 -418 -392 -230 -794 -465 -894 -523 l-183 -104 0 -109 c0 -90 2
-107 14 -103 12 5 1348 842 1689 1058 l107 69 0 -600 0 -600 -135 0 -135 0 0
349 0 350 -167 -106 c-212 -134 -657 -414 -745 -468 l-67 -42 614 -306 615
-306 0 -1076 0 -1076 -47 26 c-27 14 -397 223 -823 463 l-775 437 -3 583 -2
582 130 0 130 0 0 -505 c0 -488 1 -505 19 -505 16 0 993 -541 1074 -594 l27
-18 0 753 c0 415 -4 759 -8 766 -11 18 -1466 733 -1491 733 l-21 0 0 -882 c0
-486 -3 -899 -6 -918 l-6 -35 900 -522 c495 -288 908 -523 919 -523 10 0 23 4
29 9 5 5 405 237 889 516 484 279 890 513 903 521 20 13 22 13 22 -3 -1 -17
-125 -90 -1572 -922 l-267 -153 -916 528 -915 529 0 1060 0 1060 908 527 c499
289 915 525 924 523 10 -2 427 -238 928 -526z m-707 260 c23 -12 93 -51 155
-86 l112 -65 0 -689 0 -689 300 0 300 0 0 511 c0 294 4 509 9 507 5 -1 79 -46
165 -98 l156 -94 0 -1126 0 -1125 -163 -102 -162 -103 -3 660 -2 660 -300 0
-300 0 0 -839 0 -839 -160 -95 -160 -95 0 1864 c0 1025 2 1864 5 1864 3 0 25
-10 48 -21z"/>
</g>
</svg>
